<svg width="94" height="63" viewBox="0 0 94 63" fill="none" xmlns="http://www.w3.org/2000/svg">
<path d="M93.396 13.9105C93.396 6.52787 87.3183 0.588968 79.8084 0.588968C69.636 0.164057 59.2616 0 48.6596 0H45.3545C34.7782 0 24.3854 0.164058 14.2131 0.590609C6.7215 0.590609 0.643776 6.56232 0.643776 13.9449C0.184733 19.7838 -0.00990043 25.6242 0.00111659 31.4647C-0.0172451 37.3052 0.190854 43.1511 0.625414 49.0025C0.625414 56.3851 6.70313 62.3732 14.1947 62.3732C24.8812 62.8162 35.8431 63.0131 46.9887 62.9966C58.1526 63.0295 69.0839 62.8217 79.7827 62.3732C87.2926 62.3732 93.3703 56.3851 93.3703 49.0025C93.811 43.1456 94.013 37.3052 93.9946 31.4483C94.0362 25.6078 93.8367 19.7619 93.396 13.9105ZM38.0098 47.5588V15.3214L64.6343 31.4319L38.0098 47.5588Z" fill="#3683F5"/>
</svg>
