<svg width="22" height="15" viewBox="0 0 22 15" fill="none" xmlns="http://www.w3.org/2000/svg">
<path d="M21.8586 3.31202C21.8586 1.55425 20.4362 0.14023 18.6786 0.14023C16.2978 0.0390613 13.8697 0 11.3884 0H10.6149C8.13957 0 5.70723 0.0390614 3.32646 0.140621C1.57312 0.140621 0.150671 1.56246 0.150671 3.32022C0.0432355 4.71042 -0.00231712 6.10101 0.000261329 7.49159C-0.00403609 8.88218 0.044668 10.2741 0.146374 11.6673C0.146374 13.425 1.56882 14.8508 3.32216 14.8508C5.82326 14.9562 8.38882 15.0031 10.9974 14.9992C13.6102 15.007 16.1686 14.9575 18.6725 14.8508C20.4302 14.8508 21.8526 13.425 21.8526 11.6673C21.9558 10.2728 22.003 8.88218 21.9987 7.48769C22.0085 6.0971 21.9618 4.70521 21.8586 3.31202ZM8.89591 11.3235V3.64795L15.1272 7.48378L8.89591 11.3235Z" fill="#A1A8B0"/>
</svg>
